<svg xmlns="http://www.w3.org/2000/svg" version="1.1" xmlns:xlink="http://www.w3.org/1999/xlink" width="512" height="512" x="0" y="0" viewBox="0 0 66 66" style="enable-background:new 0 0 512 512" xml:space="preserve" class=""><g><path d="M55.16 1.11H10.84c-3.46 0-6.27 2.81-6.27 6.27v56.53a.966.966 0 0 0 1.59.74l4.92-4.21 4.91 4.21c.36.31.9.31 1.26 0l4.91-4.21 4.91 4.21c.36.31.9.31 1.26 0l4.91-4.21 4.91 4.21c.36.31.9.31 1.26 0l4.91-4.21 4.91 4.21c.18.15.4.23.63.23a.971.971 0 0 0 .96-.97V16.98h9.65c.53 0 .97-.43.97-.97V7.39c-.01-3.46-2.82-6.28-6.28-6.28zm-6.28 60.71-3.94-3.38a.97.97 0 0 0-1.26 0l-4.91 4.21-4.91-4.21a.97.97 0 0 0-1.26 0l-4.91 4.21-4.91-4.21a.97.97 0 0 0-1.26 0l-4.91 4.21-4.91-4.21a.97.97 0 0 0-1.26 0L6.5 61.82V7.39c0-2.39 1.95-4.34 4.34-4.34h39.8a6.28 6.28 0 0 0-1.76 4.34v8.62zM59.5 15.05h-8.68V7.39c0-2.39 1.95-4.34 4.34-4.34S59.5 5 59.5 7.39z" fill="#000000" opacity="1" data-original="#000000" class=""></path><path d="M27.81 14.73c0-5.18-4.21-9.39-9.39-9.39s-9.39 4.21-9.39 9.39 4.21 9.39 9.39 9.39 9.39-4.21 9.39-9.39zm-9.39 7.46c-4.11 0-7.46-3.35-7.46-7.46s3.34-7.46 7.46-7.46 7.46 3.35 7.46 7.46-3.35 7.46-7.46 7.46z" fill="#000000" opacity="1" data-original="#000000" class=""></path><path d="M18.42 11.74c.69 0 1.28.44 1.28.96a.97.97 0 0 0 1.94 0c0-1.29-.95-2.37-2.25-2.74v-.23a.97.97 0 0 0-1.94 0v.23c-1.3.37-2.25 1.45-2.25 2.74 0 1.6 1.44 2.89 3.21 2.89.69 0 1.28.44 1.28.96s-.59.96-1.28.96c-.41 0-.79-.15-1.04-.41a.787.787 0 0 1-.24-.55.97.97 0 0 0-1.94 0c0 .69.27 1.36.77 1.89.39.41.91.7 1.47.86v.44a.97.97 0 0 0 1.94 0v-.44c1.3-.37 2.25-1.45 2.25-2.74 0-1.6-1.44-2.89-3.21-2.89-.69 0-1.28-.44-1.28-.96.01-.53.6-.97 1.29-.97zM46.24 9.48H30.05a.97.97 0 0 0 0 1.94h16.19a.97.97 0 0 0 0-1.94zM46.24 13.77H33.47a.97.97 0 0 0 0 1.94h12.77a.97.97 0 0 0 0-1.94zM46.24 18.05h-2.65a.97.97 0 0 0 0 1.94h2.65a.97.97 0 0 0 0-1.94zM39.27 19.99a.97.97 0 0 0 0-1.94h-9.22a.97.97 0 0 0 0 1.94zM19.76 31.9a.97.97 0 0 0-.97.97v3.56c0 .2-.16.36-.36.36h-7.11c-.2 0-.36-.16-.36-.36v-7.11c0-.2.16-.36.36-.36h5.72a.97.97 0 0 0 0-1.94h-5.72c-1.26 0-2.29 1.03-2.29 2.29v7.11c0 1.26 1.03 2.29 2.29 2.29h7.11c1.26 0 2.29-1.03 2.29-2.29v-3.56a.96.96 0 0 0-.96-.96zM46.24 29.09H24.43a.97.97 0 0 0 0 1.94h21.82c.53 0 .97-.43.97-.97s-.44-.97-.98-.97zM46.24 34.7H33.79a.97.97 0 0 0 0 1.94h12.45a.97.97 0 0 0 0-1.94zM24.43 36.64h4.52a.97.97 0 0 0 0-1.94h-4.52a.97.97 0 0 0 0 1.94z" fill="#000000" opacity="1" data-original="#000000" class=""></path><path d="M13.19 32.42c-.38-.38-.99-.38-1.37 0s-.38.99 0 1.37l1.72 1.72a.97.97 0 0 0 1.36 0l4.46-4.46c.38-.38.38-.99 0-1.37s-.99-.38-1.37 0l-3.78 3.77zM46.24 44.1H24.43a.97.97 0 0 0 0 1.94h21.82c.53 0 .97-.43.97-.97s-.44-.97-.98-.97zM46.24 49.71h-3.86a.97.97 0 0 0 0 1.94h3.86a.97.97 0 0 0 0-1.94zM37.54 49.71H24.43a.97.97 0 0 0 0 1.94h13.12c.53 0 .97-.43.97-.97s-.44-.97-.98-.97zM17.83 42.02h-5.89c-1.6 0-2.9 1.3-2.9 2.9v5.89c0 1.6 1.3 2.9 2.9 2.9h5.89c1.6 0 2.9-1.3 2.9-2.9v-5.89c-.01-1.6-1.31-2.9-2.9-2.9zm.96 8.79c0 .53-.43.97-.97.97h-5.89a.97.97 0 0 1-.97-.97v-5.89c0-.53.43-.97.97-.97h5.89c.53 0 .97.43.97.97z" fill="#000000" opacity="1" data-original="#000000" class=""></path></g></svg>