<svg xmlns="http://www.w3.org/2000/svg" version="1.1" xmlns:xlink="http://www.w3.org/1999/xlink" width="512" height="512" x="0" y="0" viewBox="0 0 24 24" style="enable-background:new 0 0 512 512" xml:space="preserve" class=""><g><clipPath id="a"><path d="M0 0h24v24H0z" fill="#000000" opacity="1" data-original="#000000"></path></clipPath><g clip-path="url(#a)"><path fill="#292929" fill-rule="evenodd" d="M7.553 5.348a.474.474 0 0 0-.058.733l10.424 10.424a.474.474 0 0 0 .733-.058A8 8 0 0 0 7.554 5.349zm8.894 13.303a.474.474 0 0 0 .058-.732L6.081 7.495a.474.474 0 0 0-.733.058 8 8 0 0 0 11.098 11.098zM4.929 4.93A9.972 9.972 0 0 1 12 1.999c5.523 0 10 4.478 10 10a9.972 9.972 0 0 1-2.929 7.072A9.972 9.972 0 0 1 12 22C6.477 22 2 17.523 2 12a9.972 9.972 0 0 1 2.929-7.071z" clip-rule="evenodd" opacity="1" data-original="#292929" class=""></path></g></g></svg>